<?xml version="1.0" encoding="UTF-8" standalone="no"?>
<svg
   xmlns:dc="http://purl.org/dc/elements/1.1/"
   xmlns:cc="http://creativecommons.org/ns#"
   xmlns:rdf="http://www.w3.org/1999/02/22-rdf-syntax-ns#"
   xmlns:svg="http://www.w3.org/2000/svg"
   xmlns="http://www.w3.org/2000/svg"
   id="svg8"
   version="1.1"
   viewBox="0 0 192 192"
   height="192"
   width="192">
  <defs
     id="defs2" />
  <metadata
     id="metadata5">
    <rdf:RDF>
      <cc:Work
         rdf:about="">
        <dc:format>image/svg+xml</dc:format>
        <dc:type
           rdf:resource="http://purl.org/dc/dcmitype/StillImage" />
        <dc:title></dc:title>
      </cc:Work>
    </rdf:RDF>
  </metadata>
  <g
     style="fill:#a2140f"
     id="layer1" />
  <g
     id="g919">
    <circle
       style="fill:#a2140f;stroke-width:0.205987"
       id="path841"
       cx="96"
       cy="96"
       r="95" />
    <g
       id="g909"
       transform="matrix(1.3102234,0,0,1.3102234,25.792479,11.361268)">
      <circle
         style="fill:white"
         id="circle13"
         transform="translate(0.54,0.4874983)"
         r="9.1420002"
         cy="66.044998"
         cx="9.1420002" />
      <circle
         style="fill:white"
         id="circle15"
         transform="translate(0.54,0.4874983)"
         r="9.1429996"
         cy="103.882"
         cx="74.693001" />
      <path
         style="fill:white"
         id="path17"
         d="m 75.774,69.733498 c -1.56,10.962 -11.006,19.419 -22.393,19.419 -2.975,0 -5.818,-0.579 -8.423,-1.627 L 37.117,101.1065 c 5.022,2.366 10.547,3.615 16.264,3.615 2.987,0 5.921,-0.343 8.759,-1.008 0.219,-4.291002 2.538,-8.390002 6.537,-10.697002 3.994,-2.307 8.695,-2.271 12.519,-0.321 5.963,-6.331 9.53,-14.353 10.24,-22.962 z" />
      <path
         style="fill:white"
         id="path19"
         d="m 30.762,66.532498 c 0,-7.207 3.387,-13.637 8.654,-17.782 l -7.84,-13.579 c -1.839,1.284 -3.579,2.738 -5.197,4.358 -4.537,4.537 -7.791,10.015 -9.581,15.993 3.607,2.336 5.996,6.393 5.996,11.01 0,4.617 -2.389,8.674 -5.996,11.01 1.79,5.978 5.044,11.457 9.581,15.993 1.617,1.618 3.356,3.073 5.193,4.357 l 7.84,-13.582 c -5.265,-4.144 -8.65,-10.573 -8.65,-17.778 z" />
      <circle
         style="fill:white"
         id="circle21"
         transform="translate(0.54,0.4874983)"
         r="9.1420002"
         cy="28.195"
         cx="74.684998" />
      <path
         style="fill:white"
         id="path39"
         d="m 81.204,40.415498 c -0.014,0.007 -0.028,0.013 -0.042,0.02 -1.465,0.957 -3.444,1.262 -5.1,1.403 -8.695,0.746 -16.926,-7.754 -16.926,-20.917 0,-8.316 1.261,-15.4529997 4.638,-20.38499972 0.007,-0.017 0.015,-0.032 0.023,-0.049 C 57.218,5.9804983 51.7,14.196498 48.618,24.120498 c -0.493,1.587 -0.896,3.171 -1.238,4.749 -1.214,5.596 -1.512,11.098 -0.973,16.212 0.373,-0.122 0.75,-0.233 1.132,-0.336 1.865,-0.498 3.822,-0.771 5.843,-0.771 11.39,0 20.84,8.458 22.406,19.422 H 91.46 c -0.712,-8.617 -4.284,-16.646 -10.256,-22.981 z" />
    </g>
  </g>
</svg>
